# xmcd
#
# Track frame offsets: 
#        150
#        13135
#        30517
#        48836
#        72733
#        86690
#        107192
#        180092
#        219658
#        241717
#        271293
#        309026
#        332737
#
# Disc length: 4760 seconds
#
# Revision: 0
# Processed by: cddbd v1.5.2PL0 Copyright (c) Steve Scherf et al.
# Submitted via: ExactAudioCopy v0.99pb3
#
DISCID=a712960d
DTITLE=Duke Robillard - Duke`s Box, The Blues And More [CD 3)
DYEAR=2009
DGENRE=Blues
TTITLE0=Real Live Wire
TTITLE1=Slim Jenkins Joint
TTITLE2=Jumpin' Roskin' Rhythm
TTITLE3=Low Side Of The Road
TTITLE4=Just Before Dawn - Dawn
TTITLE5=Fishnet
TTITLE6=Blues A Rama
TTITLE7=Love Sick
TTITLE8=Do The Memphis Grind
TTITLE9=Too Much Stuff
TTITLE10=Stratisfied
TTITLE11=Addiction
TTITLE12=Rehab (Bonus track)
EXTD=
EXTT0=
EXTT1=
EXTT2=
EXTT3=
EXTT4=
EXTT5=
EXTT6=
EXTT7=
EXTT8=
EXTT9=
EXTT10=
EXTT11=
EXTT12=
PLAYORDER=
